<?xml version="1.0" encoding="UTF-8" standalone="no"?>
<!-- Created with Inkscape (http://www.inkscape.org/) -->

<svg
   xmlns:dc="http://purl.org/dc/elements/1.1/"
   xmlns:cc="http://creativecommons.org/ns#"
   xmlns:rdf="http://www.w3.org/1999/02/22-rdf-syntax-ns#"
   xmlns:svg="http://www.w3.org/2000/svg"
   xmlns="http://www.w3.org/2000/svg"
   xmlns:sodipodi="http://sodipodi.sourceforge.net/DTD/sodipodi-0.dtd"
   xmlns:inkscape="http://www.inkscape.org/namespaces/inkscape"
   width="300.85733mm"
   height="300.91669mm"
   viewBox="0 0 1066.0299 1066.2402"
   id="svg4191"
   version="1.1"
   inkscape:version="0.91 r13725"
   sodipodi:docname="Novo documento 1.2019_10_20_15_05_45.0.svg">
  <defs
     id="defs4193">
    <inkscape:path-effect
       effect="spiro"
       id="path-effect4154"
       is_visible="true" />
    <inkscape:path-effect
       is_visible="true"
       id="path-effect4150"
       effect="spiro" />
    <inkscape:path-effect
       effect="spiro"
       id="path-effect4146"
       is_visible="true" />
    <inkscape:path-effect
       is_visible="true"
       id="path-effect4142"
       effect="spiro" />
    <inkscape:path-effect
       effect="spiro"
       id="path-effect4138"
       is_visible="true" />
    <inkscape:path-effect
       effect="spiro"
       id="path-effect4743"
       is_visible="true" />
  </defs>
  <sodipodi:namedview
     id="base"
     pagecolor="#ffffff"
     bordercolor="#666666"
     borderopacity="1.0"
     inkscape:pageopacity="0.0"
     inkscape:pageshadow="2"
     inkscape:zoom="0.28622376"
     inkscape:cx="-691.63268"
     inkscape:cy="934.85369"
     inkscape:document-units="px"
     inkscape:current-layer="layer1"
     showgrid="false"
     showborder="true"
     inkscape:snap-object-midpoints="false"
     inkscape:object-nodes="true"
     inkscape:snap-smooth-nodes="true"
     fit-margin-top="0"
     fit-margin-left="0"
     fit-margin-right="0"
     fit-margin-bottom="0" />
  <metadata
     id="metadata4196">
    <rdf:RDF>
      <cc:Work
         rdf:about="">
        <dc:format>image/svg+xml</dc:format>
        <dc:type
           rdf:resource="http://purl.org/dc/dcmitype/StillImage" />
        <dc:title></dc:title>
      </cc:Work>
    </rdf:RDF>
  </metadata>
  <g
     inkscape:label="Camada 1"
     inkscape:groupmode="layer"
     id="layer1"
     transform="translate(2961.7487,860.69922)">
    <path
       style="opacity:1;fill:#ffffff;fill-opacity:1;fill-rule:evenodd;stroke:none;stroke-width:12;stroke-linecap:round;stroke-linejoin:round;stroke-miterlimit:4;stroke-dasharray:none;stroke-dashoffset:0;stroke-opacity:1"
       d="m -2622.6666,-860.69922 c -48.8816,0 -91.4289,25.8745 -114.9629,64.6777 -4.1503,6.8431 -7.7812,14.0392 -10.6738,21.6192 l -157.5977,0 c -30.9397,0 -55.8477,24.9079 -55.8477,55.8476 l 0,120.7032 c 0,30.9393 24.908,55.8476 55.8477,55.8476 l 148.7637,0 0,21.6191 0,591.45512 c 0,74.4971 59.9736,134.47071 134.4707,134.47071 l 592.4648,0 c 74.4971,0 134.4707,-59.97359 134.4707,-134.47071 l 0,-680.29492 a 12.50125,12.50125 0 0 0 -0.012,-0.2187 12.50125,12.50125 0 0 0 -0.025,-0.5176 12.50125,12.50125 0 0 0 -0.059,-0.7246 12.50125,12.50125 0 0 0 -0.082,-0.543 12.50125,12.50125 0 0 0 -0.1211,-0.6719 12.50125,12.50125 0 0 0 -0.1484,-0.5801 12.50125,12.50125 0 0 0 -0.1739,-0.6074 12.50125,12.50125 0 0 0 -0.2363,-0.6465 12.50125,12.50125 0 0 0 -0.1973,-0.4941 12.50125,12.50125 0 0 0 -0.3125,-0.6504 12.50125,12.50125 0 0 0 -0.2539,-0.4844 12.50125,12.50125 0 0 0 -0.3593,-0.5859 12.50125,12.50125 0 0 0 -0.3028,-0.4609 12.50125,12.50125 0 0 0 -0.4375,-0.5782 12.50125,12.50125 0 0 0 -0.334,-0.4121 12.50125,12.50125 0 0 0 -0.6054,-0.664 l -238.9746,-238.9747 a 12.50125,12.50125 0 0 0 -0.9278,-0.8378 12.50125,12.50125 0 0 0 -1.0058,-0.7422 12.50125,12.50125 0 0 0 -1.0743,-0.6367 12.50125,12.50125 0 0 0 -1.1328,-0.5254 12.50125,12.50125 0 0 0 -1.1816,-0.4121 12.50125,12.50125 0 0 0 -1.2129,-0.2911 12.50125,12.50125 0 0 0 -1.2383,-0.1699 12.50125,12.50125 0 0 0 -1.0644,-0.0449 l -475.4629,0 z"
       id="path4361"
       inkscape:connector-curvature="0" />
    <path
       style="color:#000000;font-style:normal;font-variant:normal;font-weight:normal;font-stretch:normal;font-size:medium;line-height:normal;font-family:sans-serif;text-indent:0;text-align:start;text-decoration:none;text-decoration-line:none;text-decoration-style:solid;text-decoration-color:#000000;letter-spacing:normal;word-spacing:normal;text-transform:none;direction:ltr;block-progression:tb;writing-mode:lr-tb;baseline-shift:baseline;text-anchor:start;white-space:normal;clip-rule:nonzero;display:inline;overflow:visible;visibility:visible;opacity:1;isolation:auto;mix-blend-mode:normal;color-interpolation:sRGB;color-interpolation-filters:linearRGB;solid-color:#000000;solid-opacity:1;fill:#000000;fill-opacity:1;fill-rule:evenodd;stroke:none;stroke-width:25;stroke-linecap:round;stroke-linejoin:round;stroke-miterlimit:4;stroke-dasharray:none;stroke-dashoffset:0;stroke-opacity:1;color-rendering:auto;image-rendering:auto;shape-rendering:auto;text-rendering:auto;enable-background:accumulate"
       d="m -2625.1387,-860.69922 c -48.2827,0 -90.38,25.99706 -113.3906,64.67774 l 30.0254,0 c 19.5429,-24.24572 49.4923,-39.67774 83.3652,-39.67774 l 465.4473,0 0,106.98633 c 0,72.90456 59.084,131.98633 131.9883,131.98633 l 106.9843,0 0,670.281248 c 0,59.486552 -47.5013,106.986332 -106.9882,106.986332 l -597.4317,0 c -59.4869,0 -106.9863,-47.49954 -106.9863,-106.986332 l 0,-593.939458 -25,0 0,593.939458 c 0,72.904302 59.0819,131.986332 131.9863,131.986332 l 597.4317,0 c 72.9044,0 131.9882,-59.08179 131.9882,-131.986332 l 0,-682.779298 a 12.50125,12.50125 0 0 0 -0.012,-0.21875 12.50125,12.50125 0 0 0 -0.025,-0.51758 12.50125,12.50125 0 0 0 -0.059,-0.72461 12.50125,12.50125 0 0 0 -0.082,-0.54297 12.50125,12.50125 0 0 0 -0.1211,-0.67187 12.50125,12.50125 0 0 0 -0.1484,-0.58008 12.50125,12.50125 0 0 0 -0.1738,-0.60742 12.50125,12.50125 0 0 0 -0.2364,-0.64649 12.50125,12.50125 0 0 0 -0.1972,-0.49414 12.50125,12.50125 0 0 0 -0.3125,-0.65039 12.50125,12.50125 0 0 0 -0.2539,-0.48437 12.50125,12.50125 0 0 0 -0.3594,-0.58594 12.50125,12.50125 0 0 0 -0.3028,-0.46094 12.50125,12.50125 0 0 0 -0.4375,-0.57812 12.50125,12.50125 0 0 0 -0.3339,-0.41211 12.50125,12.50125 0 0 0 -0.6055,-0.66406 l -238.9746,-238.97461 a 12.50125,12.50125 0 0 0 -5.3223,-3.1543 12.50125,12.50125 0 0 0 -1.2129,-0.29102 12.50125,12.50125 0 0 0 -2.3027,-0.21484 l -477.9453,0 0,0 z"
       id="path4746"
       inkscape:connector-curvature="0" />
    <path
       style="color:#000000;font-style:normal;font-variant:normal;font-weight:normal;font-stretch:normal;font-size:medium;line-height:normal;font-family:sans-serif;text-indent:0;text-align:start;text-decoration:none;text-decoration-line:none;text-decoration-style:solid;text-decoration-color:#000000;letter-spacing:normal;word-spacing:normal;text-transform:none;direction:ltr;block-progression:tb;writing-mode:lr-tb;baseline-shift:baseline;text-anchor:start;white-space:normal;clip-rule:nonzero;display:inline;overflow:visible;visibility:visible;opacity:1;isolation:auto;mix-blend-mode:normal;color-interpolation:sRGB;color-interpolation-filters:linearRGB;solid-color:#000000;solid-opacity:1;fill:#000000;fill-opacity:1;fill-rule:evenodd;stroke:none;stroke-width:24.78431702;stroke-linecap:round;stroke-linejoin:round;stroke-miterlimit:4;stroke-dasharray:none;stroke-dashoffset:0;stroke-opacity:1;color-rendering:auto;image-rendering:auto;shape-rendering:auto;text-rendering:auto;enable-background:accumulate"
       d="m -2659.668,-498.81445 a 12.393398,12.393398 0 0 0 -12.3925,12.39257 l 0,577.701177 a 12.393398,12.393398 0 0 0 12.3925,12.390623 l 666.4942,0 a 12.393398,12.393398 0 0 0 12.3906,-12.390623 l 0,-577.701177 a 12.393398,12.393398 0 0 0 -12.3906,-12.39257 l -666.4942,0 z m 12.3926,24.78515 641.709,0 0,71.25782 -641.709,0 0,-71.25782 z m 0,83.25782 641.709,0 0,86.26953 -641.709,0 0,-86.26953 z m 0,98.26953 641.709,0 0,86.27148 -641.709,0 0,-86.27148 z m 0,98.27148 641.709,0 0,86.27149 -641.709,0 0,-86.27149 z m 0,98.271486 641.709,0 0,86.271484 -641.709,0 0,-86.271484 z m 0,98.271484 641.709,0 0,76.574219 -641.709,0 0,-76.574219 z"
       id="path4181"
       inkscape:export-xdpi="150"
       inkscape:export-ydpi="150"
       inkscape:connector-curvature="0" />
    <path
       style="opacity:1;fill:#000000;fill-opacity:1;fill-rule:evenodd;stroke:none;stroke-width:12;stroke-linecap:round;stroke-linejoin:round;stroke-miterlimit:4;stroke-dasharray:none;stroke-dashoffset:0;stroke-opacity:1"
       d="m -2905.8887,-774.40234 c -30.9397,0 -55.8476,24.90796 -55.8476,55.84765 l 0,120.70313 c 0,30.93969 24.9079,55.84765 55.8476,55.84765 l 585.502,0 c 30.9397,0 55.8476,-24.90796 55.8476,-55.84765 l 0,-120.70313 c 0,-30.93969 -24.9079,-55.84765 -55.8476,-55.84765 l -585.502,0 z m 53.2754,42.52343 c 9.3207,0 17.3524,1.22688 24.0977,3.67969 6.8679,2.45282 13.7985,6.49915 20.789,12.14063 1.4717,1.10376 2.4528,2.26968 2.9434,3.49609 0.4906,1.10377 0.7344,2.45254 0.7344,4.04688 0,2.45281 -0.9182,4.47598 -2.7578,6.07031 -1.717,1.59433 -3.7421,2.39062 -6.0723,2.39062 -2.3302,0 -4.4753,-0.79629 -6.4375,-2.39062 -5.0283,-4.29243 -9.9338,-7.35766 -14.7168,-9.19727 -4.783,-1.96225 -10.9764,-2.94336 -18.5801,-2.94336 -9.566,0 -18.3959,2.51274 -26.4902,7.54102 -7.9717,5.02827 -14.3498,11.89602 -19.1328,20.60351 -4.6604,8.58486 -6.9903,17.9673 -6.9903,28.14649 0,10.30183 2.3299,19.74522 6.9903,28.33008 4.783,8.58485 11.1611,15.39164 19.1328,20.41992 8.0943,5.02827 16.9242,7.54297 26.4902,7.54297 11.7735,0 23.0553,-4.04829 33.8477,-12.14258 2.0849,-1.47169 4.11,-2.20703 6.0722,-2.20703 2.3302,0 4.2295,0.8592 5.7012,2.57617 1.5943,1.59433 2.3926,3.7394 2.3926,6.4375 0,2.57546 -0.9811,4.84439 -2.9434,6.80664 -13.2452,10.66975 -28.2685,16.00586 -45.0703,16.00586 -13.1225,0 -25.1416,-3.25004 -36.0566,-9.75 -10.7924,-6.49996 -19.3157,-15.39283 -25.5703,-26.67578 -6.2547,-11.28296 -9.3828,-23.73062 -9.3828,-37.34375 0,-13.49049 3.1281,-25.81625 9.3828,-36.97656 6.2546,-11.28296 14.7779,-20.17387 25.5703,-26.67383 10.915,-6.62261 22.9341,-9.9336 36.0566,-9.9336 z m 374.3692,0.1836 c 10.5471,0 19.438,2.14702 26.6738,6.43945 7.2358,4.29243 13.3682,10.42288 18.3965,18.39453 1.4717,2.33018 2.207,4.53816 2.207,6.62305 0,2.6981 -1.2249,4.90607 -3.6777,6.62305 -1.3491,0.85848 -2.9436,1.2871 -4.7832,1.28711 -1.8396,0 -3.558,-0.42863 -5.1524,-1.28711 -1.5943,-0.98113 -2.8192,-2.26896 -3.6777,-3.86329 -3.3113,-5.51883 -7.4815,-9.68902 -12.5098,-12.50976 -4.9056,-2.94338 -11.1599,-4.41406 -18.7636,-4.41406 -9.3208,0 -16.8629,1.83835 -22.627,5.51757 -5.7641,3.55659 -8.6465,8.76884 -8.6465,15.63672 0,6.37733 2.5757,11.71343 7.7266,16.00586 5.1509,4.29243 14.3485,7.11189 27.5937,8.46094 14.7169,1.47169 26.1225,5.9486 34.2168,13.42969 8.0943,7.35845 12.1406,17.10856 12.1406,29.25 0,8.83014 -2.3908,16.43322 -7.1738,22.81054 -4.783,6.25469 -11.1611,10.97736 -19.1328,14.16602 -7.849,3.06602 -16.3113,4.59961 -25.3867,4.59961 -11.8962,0 -22.7493,-2.69951 -32.5606,-8.0957 -9.6886,-5.3962 -16.3715,-12.4468 -20.0507,-21.1543 -0.6132,-1.47169 -0.92,-2.69856 -0.92,-3.67969 0,-1.83961 0.6744,-3.43415 2.0235,-4.7832 1.349,-1.47169 3.1874,-2.4528 5.5176,-2.94336 0.3679,-0.12264 0.9813,-0.18359 1.8398,-0.18359 1.9622,0 3.8026,0.61343 5.5195,1.83984 1.8396,1.10377 3.1884,2.6354 4.0469,4.59766 2.2075,4.78299 6.5606,8.83127 13.0605,12.14257 6.5,3.31131 13.6745,4.9668 21.5235,4.9668 9.198,0 16.9859,-2.08607 23.3633,-6.25586 6.3773,-4.29243 9.5664,-10.11616 9.5664,-17.47461 0,-6.99052 -2.6976,-12.94007 -8.0938,-17.8457 -5.3962,-5.02827 -13.6127,-8.0935 -24.6504,-9.19727 -15.2074,-1.47169 -27.1655,-5.88764 -35.873,-13.24609 -8.7075,-7.48109 -13.0606,-16.80062 -13.0606,-27.96094 0,-7.84901 2.2061,-14.59485 6.6211,-20.23633 4.5377,-5.76411 10.6701,-10.11716 18.3965,-13.06054 7.849,-3.06602 16.618,-4.59961 26.3067,-4.59961 z m 126.4726,0 c 10.5471,0 19.44,2.14702 26.6758,6.43945 7.2358,4.29243 13.3663,10.42288 18.3945,18.39453 1.4717,2.33018 2.209,4.53816 2.209,6.62305 0,2.6981 -1.2269,4.90607 -3.6797,6.62305 -1.349,0.85848 -2.9436,1.2871 -4.7832,1.28711 -1.8396,0 -3.556,-0.42863 -5.1504,-1.28711 -1.5943,-0.98113 -2.8212,-2.26896 -3.6797,-3.86329 -3.3113,-5.51883 -7.4814,-9.68902 -12.5097,-12.50976 -4.9057,-2.94338 -11.16,-4.41406 -18.7637,-4.41406 -9.3207,0 -16.8628,1.83835 -22.6269,5.51757 -5.7642,3.55659 -8.6465,8.76884 -8.6465,15.63672 0,6.37733 2.5756,11.71343 7.7265,16.00586 5.1509,4.29243 14.3486,7.11189 27.5938,8.46094 14.7169,1.47169 26.1225,5.9486 34.2168,13.42969 8.0943,7.35845 12.1426,17.10856 12.1426,29.25 0,8.83014 -2.3928,16.43322 -7.1758,22.81054 -4.783,6.25469 -11.1592,10.97736 -19.1309,14.16602 -7.849,3.06602 -16.3113,4.59961 -25.3867,4.59961 -11.8962,0 -22.7512,-2.69951 -32.5625,-8.0957 -9.6886,-5.3962 -16.3716,-12.4468 -20.0508,-21.1543 -0.6132,-1.47169 -0.9199,-2.69856 -0.9199,-3.67969 0,-1.83961 0.6744,-3.43415 2.0234,-4.7832 1.3491,-1.47169 3.1894,-2.4528 5.5196,-2.94336 0.3679,-0.12264 0.9813,-0.18359 1.8398,-0.18359 1.9623,0 3.8006,0.61343 5.5176,1.83984 1.8396,1.10377 3.1884,2.6354 4.0469,4.59766 2.2075,4.78299 6.5625,8.83127 13.0625,12.14257 6.4999,3.31131 13.6744,4.9668 21.5234,4.9668 9.1981,0 16.986,-2.08607 23.3633,-6.25586 6.3773,-4.29243 9.5644,-10.11616 9.5644,-17.47461 0,-6.99052 -2.6975,-12.94007 -8.0937,-17.8457 -5.3962,-5.02827 -13.6127,-8.0935 -24.6504,-9.19727 -15.2075,-1.47169 -27.1656,-5.88764 -35.8731,-13.24609 -8.7075,-7.48109 -13.0605,-16.80062 -13.0605,-27.96094 0,-7.84901 2.208,-14.59485 6.623,-20.23633 4.5378,-5.76411 10.6682,-10.11716 18.3946,-13.06054 7.849,-3.06602 16.618,-4.59961 26.3066,-4.59961 z m -412.8457,1.65625 c 2.6981,0 4.967,0.92015 6.8067,2.75976 1.8396,1.83962 2.7597,4.10855 2.7597,6.80664 l 0,114.97461 66.5938,0 c 2.6981,0 4.967,0.92016 6.8066,2.75977 1.8396,1.83961 2.7598,4.10854 2.7598,6.80664 0,2.6981 -0.9202,4.96703 -2.7598,6.80664 -1.8396,1.83961 -4.1085,2.75977 -6.8066,2.75977 l -76.1602,0 c -2.6981,0 -4.967,-0.92016 -6.8066,-2.75977 -1.717,-1.83961 -2.5762,-4.10854 -2.5762,-6.80664 l 0,-124.54102 c 0,-2.69809 0.9202,-4.96702 2.7598,-6.80664 1.8396,-1.83961 4.0476,-2.75976 6.623,-2.75976 z m 155.3692,0 c 4.415,0 7.4212,2.14507 9.0156,6.4375 l 51.8769,123.80664 c 0.6132,1.59433 0.92,2.94311 0.92,4.04687 0,2.57546 -0.9202,4.78344 -2.7598,6.62305 -1.8396,1.83961 -4.1086,2.75977 -6.8067,2.75977 -1.8396,0 -3.6189,-0.49153 -5.3359,-1.47266 -1.5943,-1.10377 -2.7583,-2.57445 -3.4941,-4.41406 l -10.3028,-25.75586 -66.041,0 -10.4863,25.75586 c -0.8585,1.83961 -2.0854,3.31029 -3.6797,4.41406 -1.5943,0.98113 -3.3108,1.47266 -5.1504,1.47266 -2.6981,0 -4.967,-0.92016 -6.8066,-2.75977 -1.717,-1.96225 -2.5762,-4.23118 -2.5762,-6.80664 0,-1.22641 0.3067,-2.63614 0.9199,-4.23047 l 51.6934,-123.43945 c 1.8396,-4.29243 4.8439,-6.4375 9.0137,-6.4375 z m 0.3691,30.7207 -26.8594,65.49024 53.166,0 -26.3066,-65.49024 z"
       id="rect4234"
       inkscape:connector-curvature="0" />
  </g>
</svg>
